PathFileType	4	(X/Y/Z)	C:/Users/opensim2020/Desktop/walking_exp_matlab/subject02_walking07_straight_01.trc	
DataRate	CameraRate	NumFrames	NumMarkers	Units	OrigDataRate	OrigDataStartFrame	OrigNumFrames	
100.00	100.00	8	50	mm	100.00	714	176	
Frame#	Time	LFHD			RFHD			LBHD			RBHD			C7			T10			CLAV			STRN			RBAK			LSHO			LUPA			LELB			LFRM			LWRA			LWRB			LFIN			RSHO			RUPA			RELB			RFRM			RWRA			RWRB			RFIN			LASI			RASI			LPSI			RPSI			LTHI			LKNE			LTIB			LANK			LHEE			LTOE			RTHI			RKNE			RTIB			RANK			RHEE			RTOE			*39			*40			*41			*42			*43			*44			*45			*46			*47			*48			*49			
		X1	Y1	Z1	X2	Y2	Z2	X3	Y3	Z3	X4	Y4	Z4	X5	Y5	Z5	X6	Y6	Z6	X7	Y7	Z7	X8	Y8	Z8	X9	Y9	Z9	X10	Y10	Z10	X11	Y11	Z11	X12	Y12	Z12	X13	Y13	Z13	X14	Y14	Z14	X15	Y15	Z15	X16	Y16	Z16	X17	Y17	Z17	X18	Y18	Z18	X19	Y19	Z19	X20	Y20	Z20	X21	Y21	Z21	X22	Y22	Z22	X23	Y23	Z23	X24	Y24	Z24	X25	Y25	Z25	X26	Y26	Z26	X27	Y27	Z27	X28	Y28	Z28	X29	Y29	Z29	X30	Y30	Z30	X31	Y31	Z31	X32	Y32	Z32	X33	Y33	Z33	X34	Y34	Z34	X35	Y35	Z35	X36	Y36	Z36	X37	Y37	Z37	X38	Y38	Z38	X39	Y39	Z39	X40	Y40	Z40	X41	Y41	Z41	X42	Y42	Z42	X43	Y43	Z43	X44	Y44	Z44	X45	Y45	Z45	X46	Y46	Z46	X47	Y47	Z47	X48	Y48	Z48	X49	Y49	Z49	X50	Y50	Z50	

67	0.660	1390.43823	-375.43240	1721.51135	1533.98950	-374.43924	1705.92236	1383.17297	-496.01688	1632.12219	1525.08740	-507.80438	1613.96973	1465.72607	-541.66840	1499.75818	1477.68201	-605.49078	1229.50208	1444.05298	-404.54175	1429.11462	1461.63232	-358.96234	1255.00806	1543.13110	-599.40186	1335.03552	1281.61584	-490.46768	1466.26733	1208.80566	-558.05469	1278.55481	1203.18762	-602.49670	1146.54626	1182.19592	-643.77948	1024.12964	1179.62683	-630.35809	884.40277	1170.22473	-681.50830	906.71448	1157.33630	-689.27411	840.91028	1643.09412	-443.56174	1475.70325	1743.16821	-432.21872	1292.44299	1771.10632	-375.27271	1155.12903	1771.58740	-294.44312	1062.68347	1729.91357	-200.79143	974.61682	1770.39978	-231.35542	948.46844	1761.24060	-168.13387	915.99109	1348.71191	-371.41330	962.62592	1607.30396	-394.57846	943.96423	1414.27783	-587.31342	1007.92023	1527.54919	-599.96790	1009.82404	1280.37036	-357.78049	666.62695	1313.66809	-318.90329	470.83127	1309.61951	-310.10657	276.60623	1336.69043	-228.21510	66.59986	1388.33264	-253.33871	30.89945	1331.38184	-72.79097	75.23191	1658.37549	-545.81769	655.09216	1620.82214	-602.90247	451.85229	1621.25500	-710.49109	295.02838	1582.72852	-794.06903	119.13647	1525.18042	-840.32727	75.16635	1604.18042	-661.38129	32.27226	1478.76074	-484.44583	1776.72119	-3357.20166	2845.83105	1034.17212																											 
68	0.670	1388.09607	-366.04688	1720.99390	1531.70325	-365.03030	1705.31519	1380.71313	-486.37283	1631.19165	1522.62012	-498.10199	1612.95361	1463.06592	-531.77539	1498.59509	1474.98364	-594.58466	1228.18005	1441.54382	-394.22632	1428.49194	1459.21729	-347.89841	1254.66357	1540.51636	-589.39874	1334.05591	1278.99976	-480.02231	1465.42334	1206.11060	-546.55725	1276.81787	1200.96240	-589.53308	1144.59106	1180.24243	-629.96490	1021.91077	1177.93005	-615.48505	882.10535	1168.46313	-666.67883	904.00562	1155.66382	-673.54224	838.07758	1640.61316	-433.74539	1474.82349	1740.66565	-423.05341	1291.87805	1768.70471	-367.43140	1154.03296	1769.33984	-286.68588	1061.35193	1727.48767	-193.21510	973.21094	1767.72534	-223.95821	946.96722	1758.40674	-160.88504	914.19189	1346.02185	-359.53391	962.52142	1604.81934	-382.56921	943.26007	1411.29956	-575.50708	1006.76416	1524.53149	-588.19556	1008.67419	1278.20142	-345.91541	665.81580	1311.38220	-308.85150	469.67209	1308.67493	-302.34576	274.97821	1337.31677	-224.92827	65.20646	1389.51672	-250.45036	32.37577	1330.01904	-68.02193	65.14295	1657.09985	-535.97302	655.10773	1620.63464	-594.30640	452.28540	1621.01184	-705.04224	297.55316	1583.26868	-791.70874	123.06697	1525.64246	-838.05475	79.82271	1604.41016	-661.06677	32.31182	1476.20068	-475.38904	1775.79980	-3357.26025	2845.81177	1034.15173																											 
69	0.680	1385.65039	-356.52487	1720.94360	1529.30908	-355.56076	1705.13147	1378.11914	-476.57318	1630.60254	1520.02905	-488.29108	1612.21130	1460.23108	-521.93622	1497.63770	1471.96057	-583.50360	1227.46997	1438.93591	-383.78467	1428.16003	1456.72791	-336.94559	1254.61719	1536.85144	-578.51190	1332.65955	1276.18616	-469.55032	1464.71179	1203.37402	-534.73877	1275.29419	1198.55176	-576.75659	1142.68896	1178.19678	-615.84119	1019.59814	1176.38147	-599.96002	879.95898	1166.76392	-651.26892	901.29767	1154.11462	-657.59039	835.24823	1637.86157	-424.20901	1474.28296	1737.89844	-414.30115	1291.00867	1766.18079	-359.72269	1152.87512	1766.50769	-279.49966	1059.71252	1724.77197	-186.10970	971.43341	1764.97168	-217.02274	945.18842	1755.56396	-154.13074	912.05981	1343.39648	-347.71771	962.78003	1602.24060	-370.34589	942.59515	1408.09192	-563.50488	1005.76257	1521.25928	-576.23730	1007.40759	1276.03613	-335.02640	665.95270	1309.06897	-299.58167	469.16580	1308.87646	-294.30154	274.29016	1335.84521	-220.77504	65.51257	1388.53027	-247.49068	34.31248	1329.15088	-62.99062	56.61351	1655.70032	-525.71869	655.04425	1620.09363	-585.32324	452.43930	1620.73901	-699.07483	300.31305	1584.06580	-788.99976	127.48680	1526.43884	-835.82697	85.42651	1604.75354	-660.67511	32.30339	1473.82898	-466.12903	1775.18311	-3360.26440	2845.18042	1033.97913																											 
70	0.690	1383.26245	-346.93137	1721.33728	1526.89868	-346.10544	1705.33472	1375.42175	-466.58505	1630.64612	1517.28064	-478.53024	1611.97937	1457.15845	-512.12402	1497.10486	1469.09631	-572.44629	1226.97192	1436.23425	-373.50122	1428.16882	1454.09070	-326.16245	1254.89819	1533.84509	-568.14410	1332.19336	1273.15906	-458.99121	1464.10181	1200.92078	-521.99548	1273.50879	1196.09045	-563.47937	1140.79163	1175.63806	-601.85553	1017.11023	1174.71277	-584.04480	877.85132	1165.08313	-635.65942	898.67499	1152.04663	-641.43738	832.74200	1635.43506	-414.57043	1473.90808	1735.33594	-405.55261	1290.25134	1763.54358	-352.16199	1151.72522	1764.19702	-272.17520	1058.28845	1722.25769	-179.39546	969.45056	1762.29736	-210.43732	943.34473	1752.86108	-147.61249	909.94421	1340.67761	-335.80179	963.28662	1599.36694	-357.90161	942.09125	1404.63843	-551.42096	1005.24341	1517.92883	-564.34119	1006.16327	1273.53125	-324.79654	667.00330	1306.32312	-289.83957	469.69196	1308.46155	-285.69757	275.20914	1333.53967	-215.83139	64.81358	1386.89111	-244.80775	35.99249	1328.39404	-58.14964	50.75047	1654.23987	-514.84943	655.18921	1619.89124	-575.41321	453.17480	1620.52222	-692.30511	303.45831	1585.00159	-785.60278	132.43941	1527.33435	-833.00201	91.88007	1605.13672	-660.20477	32.30804	1471.59082	-456.74930	1775.03296	-3360.24512	2845.15625	1034.06665																											 
71	0.700	1380.83948	-337.35361	1722.02075	1524.43835	-336.67654	1705.79272	1372.68176	-456.68143	1631.06470	1514.50354	-468.87674	1612.12732	1454.08411	-501.96524	1497.14001	1466.35120	-561.53882	1226.75525	1433.60583	-363.31479	1428.55042	1451.43091	-315.34357	1255.49817	1530.52271	-557.52753	1331.62903	1269.98145	-448.29770	1463.80347	1197.79260	-509.94919	1272.35437	1193.51843	-550.07416	1139.05566	1173.87158	-586.58484	1014.91791	1173.12402	-567.77368	876.02106	1163.33142	-619.52765	896.18683	1150.40344	-624.56989	830.34277	1633.01941	-405.18042	1473.73328	1732.61877	-396.67212	1289.73364	1760.80237	-344.60852	1150.72327	1761.38599	-265.47916	1056.59851	1719.54517	-173.02647	967.23926	1759.68921	-204.24493	941.46777	1750.20056	-141.64421	907.57733	1337.83459	-323.80109	964.01917	1596.29260	-345.35236	941.85083	1401.29260	-539.25916	1005.52753	1514.55896	-552.38544	1005.15454	1270.81897	-314.40805	667.95868	1303.51978	-279.04855	471.16653	1304.97083	-277.01352	276.46606	1332.20886	-212.16528	64.70872	1384.95178	-243.23636	37.17104	1328.07202	-54.56876	45.67363	1652.58044	-503.55545	655.58252	1620.18970	-564.41174	454.26718	1620.47827	-684.73773	307.04224	1585.84082	-781.56580	137.84235	1527.64490	-829.56635	98.85393	1605.59302	-659.63477	32.42754	1469.00464	-447.47903	1775.39026	-3357.36353	2845.87598	1034.11877																											 
72	0.710	1378.43884	-327.55475	1722.95825	1521.95288	-327.18317	1706.39197	1369.86572	-446.76089	1631.66382	1511.62305	-459.16129	1612.52869	1451.16101	-491.73526	1497.71179	1463.63379	-550.66632	1226.87170	1430.90857	-353.27499	1429.25415	1448.64526	-304.52405	1256.49487	1527.74744	-548.02411	1331.89038	1266.77905	-437.53461	1463.80908	1194.70398	-497.35092	1271.63721	1190.95007	-536.27185	1137.53894	1171.62610	-571.59833	1013.01862	1171.49768	-551.05792	874.22351	1161.61597	-602.65765	893.78003	1148.85803	-606.78583	827.98981	1630.74329	-395.21692	1474.02393	1729.50354	-388.34558	1289.18445	1757.83911	-337.21091	1149.92419	1759.03394	-258.73138	1055.39270	1716.96204	-167.14201	964.90833	1757.13342	-198.65932	939.51740	1747.51367	-136.47719	904.85144	1334.71558	-311.74496	965.06323	1593.08105	-332.88730	941.90143	1398.16174	-527.60834	1006.82361	1511.44556	-540.92963	1004.78418	1267.98376	-304.55716	669.32019	1301.73181	-267.53537	472.95541	1300.58777	-268.41980	278.49515	1332.26672	-210.23006	65.25372	1384.85132	-241.90991	37.24368	1328.10254	-52.80218	42.70423	1650.86914	-491.81680	656.09662	1620.30054	-552.44427	454.97385	1620.49805	-675.98907	310.82458	1586.60706	-776.56830	143.86389	1528.10291	-824.66583	106.75214	1606.01575	-658.95685	32.47109	1466.21790	-438.15033	1775.74390	-3360.34473	2845.18750	1033.88220																											 
73	0.720	1375.84692	-317.80649	1724.00684	1519.41553	-317.61453	1707.30640	1367.01550	-436.86035	1632.59741	1508.40161	-449.65158	1613.12036	1448.37708	-481.65662	1498.65295	1461.06531	-539.82843	1227.31860	1428.26025	-343.30869	1430.23218	1445.75562	-293.91245	1257.75500	1524.06226	-536.92963	1331.40833	1263.57837	-426.71347	1464.15039	1191.76501	-484.33771	1270.63318	1188.38098	-521.99896	1136.29675	1169.47522	-555.65070	1011.13885	1170.20032	-533.43359	872.75879	1159.65063	-585.59442	891.75397	1147.16150	-588.82599	825.96277	1628.26123	-385.28159	1474.24121	1726.72424	-379.84842	1289.20337	1754.77783	-329.79892	1149.46643	1755.87317	-252.53157	1053.82434	1714.46265	-161.69783	962.61078	1754.56909	-193.55830	937.60406	1745.06787	-131.71970	902.26624	1331.46057	-300.01096	966.39923	1589.56750	-320.49472	942.18433	1395.32629	-515.95081	1008.57648	1508.86829	-528.97742	1004.77362	1265.69629	-294.10367	670.58746	1300.75635	-256.21432	474.54041	1297.23181	-260.27225	280.19785	1332.98352	-209.03987	65.89607	1384.95337	-241.74245	38.16325	1328.87402	-51.43941	40.36990	1648.97668	-479.43246	656.74408	1621.24744	-538.77686	456.12756	1620.67786	-665.99762	314.82758	1587.17834	-770.51611	150.47331	1527.92700	-818.63794	115.28766	1606.43359	-658.46344	32.54184	1463.82764	-428.47693	1776.72278	-3357.41309	2845.85278	1034.16492																											 
74	0.730	1373.29895	-308.13010	1725.32385	1516.81201	-308.04626	1708.54480	1364.29773	-427.01746	1633.80127	1505.59668	-439.90610	1614.18445	1445.76270	-471.66714	1499.81995	1458.70410	-529.09198	1228.00439	1425.68347	-333.45267	1431.48083	1442.92871	-283.30545	1259.35498	1521.46521	-527.12640	1332.20618	1260.50293	-415.90625	1464.86230	1188.56873	-471.58932	1270.40662	1185.67517	-507.40753	1135.24670	1167.03699	-539.73596	1009.79279	1168.76880	-515.49579	871.56995	1157.54919	-567.74426	889.84613	1145.43311	-570.25525	824.06195	1626.06531	-375.13513	1475.20483	1723.42749	-371.40405	1289.44946	1751.52893	-322.46521	1149.37463	1752.93091	-246.52054	1052.74658	1711.94324	-156.89841	960.27332	1752.10498	-189.05400	935.81885	1742.73462	-127.61342	899.62543	1328.17200	-288.64172	968.10425	1585.58569	-308.40302	942.88751	1392.62488	-504.74548	1010.54205	1506.78381	-516.77380	1005.42896	1264.49170	-283.47913	671.86163	1299.83313	-245.79138	475.70901	1295.71667	-253.04683	281.22397	1333.45996	-207.57788	66.45421	1385.01245	-241.12151	38.61449	1330.65808	-50.17577	38.38049	1646.95630	-466.38132	657.47107	1622.40051	-523.78040	456.96442	1621.01538	-654.58527	318.92163	1587.44666	-763.13843	157.48363	1527.50293	-810.89899	124.44123	1606.49646	-657.66119	32.56373	1461.16797	-418.96118	1777.87146	-3360.37280	2845.29590	1033.80908																											 
